<?xml version="1.0" encoding="UTF-8"?>
<svg version="1.1" xmlns="http://www.w3.org/2000/svg" width="500" height="500">
<path d="M0 0 C165 0 330 0 500 0 C500 165 500 330 500 500 C335 500 170 500 0 500 C0 335 0 170 0 0 Z " fill="#F2F5F9" transform="translate(0,0)"/>
<path d="M0 0 C1.39557129 -0.0153479 1.39557129 -0.0153479 2.81933594 -0.03100586 C15.59100107 0.13107686 26.975715 5.37682876 36.1875 14.1875 C43.72411181 22.14347812 48.875 30.30132812 48.875 41.4375 C35.345 41.4375 21.815 41.4375 7.875 41.4375 C5.235 36.8175 2.595 32.1975 -0.125 27.4375 C9.115 27.4375 18.355 27.4375 27.875 27.4375 C24.25241914 22.90927392 21.86751494 21.016644 16.875 18.6875 C16.25882812 18.38457031 15.64265625 18.08164063 15.0078125 17.76953125 C7.18077234 13.99038096 -0.77634621 12.98298352 -9.28515625 15.296875 C-12.65291312 16.52151386 -15.91965115 17.83482557 -19.125 19.4375 C-17.85075769 23.71705301 -16.23746974 27.14688022 -13.796875 30.87890625 C-13.16265625 31.87470703 -12.5284375 32.87050781 -11.875 33.89648438 C-10.53528986 35.97539005 -9.18621733 38.04829042 -7.828125 40.11523438 C-7.1990625 41.10974609 -6.57 42.10425781 -5.921875 43.12890625 C-5.33760742 44.02810791 -4.75333984 44.92730957 -4.15136719 45.85375977 C-3.125 48.4375 -3.125 48.4375 -3.79370117 50.99829102 C-5.04032894 53.28236547 -6.27811988 55.54923102 -7.62890625 57.7734375 C-8.11810547 58.58393555 -8.60730469 59.39443359 -9.11132812 60.22949219 C-9.63146484 61.08188477 -10.15160156 61.93427734 -10.6875 62.8125 C-11.77267076 64.59602855 -12.85730064 66.3798863 -13.94140625 68.1640625 C-14.47910645 69.04868164 -15.01680664 69.93330078 -15.57080078 70.84472656 C-17.00710547 73.24082393 -18.40144792 75.65478389 -19.77734375 78.0859375 C-20.37663696 79.13128662 -20.37663696 79.13128662 -20.98803711 80.19775391 C-21.73105896 81.49808202 -22.46288566 82.80488868 -23.18188477 84.11865234 C-24.1875 85.859375 -24.1875 85.859375 -26.125 88.4375 C-31.22098106 88.4375 -32.41691111 87.02360135 -36.03125 83.69921875 C-45.64124174 73.31827618 -49.30126802 62.09902904 -49.3125 48.25 C-49.32474609 47.44369141 -49.33699219 46.63738281 -49.34960938 45.80664062 C-49.35154297 45.03126953 -49.35347656 44.25589844 -49.35546875 43.45703125 C-49.35957764 42.75682861 -49.36368652 42.05662598 -49.36791992 41.33520508 C-49.125 39.4375 -49.125 39.4375 -47.125 36.4375 C-46.68631592 37.17911377 -46.24763184 37.92072754 -45.7956543 38.68481445 C-44.16104877 41.44330584 -42.52243948 44.19936628 -40.88110352 46.95385742 C-40.17246478 48.14495982 -39.46541506 49.33700912 -38.76000977 50.5300293 C-37.74396491 52.24778237 -36.72166269 53.96182934 -35.69921875 55.67578125 C-35.08651123 56.70743408 -34.47380371 57.73908691 -33.8425293 58.80200195 C-32.40507 61.00774084 -31.07610382 62.69534974 -29.125 64.4375 C-27.74887677 62.40794407 -26.40024452 60.36713266 -25.0625 58.3125 C-24.67255859 57.74273437 -24.28261719 57.17296875 -23.88085938 56.5859375 C-22.08980441 53.79632976 -21.09190371 51.9783234 -21.296875 48.62890625 C-22.2565932 44.9303696 -23.74578721 42.21415107 -25.72265625 38.9453125 C-26.07637802 38.35450897 -26.43009979 37.76370544 -26.79454041 37.15499878 C-27.91669208 35.28533954 -29.05179388 33.42395002 -30.1875 31.5625 C-30.95464826 30.28958775 -31.72093346 29.01615494 -32.48632812 27.7421875 C-34.35594068 24.63454115 -36.23724471 21.53416731 -38.125 18.4375 C-27.67089635 5.67063995 -16.45664802 0.14055014 0 0 Z " fill="#040404" transform="translate(107.125,200.5625)"/>
<path d="M0 0 C13.53 0 27.06 0 41 0 C39.45108529 13.94023242 33.68963183 23.92633479 22.7734375 32.8125 C13.08945396 39.65630462 3.20689998 42.17721274 -8.5 42.1875 C-9.60021484 42.20586914 -9.60021484 42.20586914 -10.72265625 42.22460938 C-15.20969856 42.23664974 -18.77197609 41.69254755 -23 40 C-22.02296079 38.1863523 -21.04330895 36.37411183 -20.0625 34.5625 C-19.51722656 33.55316406 -18.97195312 32.54382813 -18.41015625 31.50390625 C-17 29 -17 29 -16 28 C-14.10852935 27.90500426 -12.21652987 27.81591974 -10.32348633 27.76049805 C-2.80122264 27.5241676 3.45185761 27.04612292 10 23 C11.093125 22.34 12.18625 21.68 13.3125 21 C16.3615487 18.83193688 16.3615487 18.83193688 20 15 C11.09 14.67 2.18 14.34 -7 14 C-5 9 -5 9 0 0 Z " fill="#070707" transform="translate(115,257)"/>
<path d="M0 0 C3.88446678 2.58964452 6.69907021 5.64814041 8.8125 9.875 C9.31488635 16.32873238 9.75691685 22.43442504 5.8125 27.875 C0.40502697 32.75491469 -3.04349749 33.22947128 -10.19921875 33.15234375 C-14.22697586 32.77852577 -16.29774545 31.69065828 -19.1875 28.875 C-23.08321265 22.37590246 -22.95944027 16.26106489 -22.1875 8.875 C-20.21283584 4.29377915 -17.48366764 1.80307081 -13.11328125 -0.43359375 C-8.55947121 -2.06853163 -4.55732376 -1.60846721 0 0 Z " fill="#0D0D0D" transform="translate(297.1875,233.125)"/>
<path d="M0 0 C3.3 0 6.6 0 10 0 C12.31 7.59 14.62 15.18 17 23 C17.969375 20.133125 18.93875 17.26625 19.9375 14.3125 C20.24163818 13.41829346 20.54577637 12.52408691 20.85913086 11.6027832 C22.14922523 7.7592244 23.35386344 4.01586138 24 0 C27.3 0 30.6 0 34 0 C34 10.89 34 21.78 34 33 C32.35 33 30.7 33 29 33 C28.505 20.13 28.505 20.13 28 7 C25.73768394 15.18148921 25.73768394 15.18148921 23.48266602 23.36499023 C23.20092529 24.37762939 22.91918457 25.39026855 22.62890625 26.43359375 C22.34088135 27.47572021 22.05285645 28.51784668 21.75610352 29.59155273 C21 32 21 32 20 33 C18.02 33 16.04 33 14 33 C11.69 25.08 9.38 17.16 7 9 C6.67 16.92 6.34 24.84 6 33 C4.02 33 2.04 33 0 33 C0 22.11 0 11.22 0 0 Z " fill="#0C0C0C" transform="translate(395,233)"/>
<path d="M0 0 C1.98 0.495 1.98 0.495 4 1 C4 33.34 4 65.68 4 99 C2.02 99.495 2.02 99.495 0 100 C-1.91926241 98.08073759 -1.12679331 95.2216698 -1.13552856 92.66748047 C-1.13350433 91.75627441 -1.1314801 90.84506836 -1.12939453 89.90625 C-1.13114685 88.95186035 -1.13289917 87.9974707 -1.13470459 87.01416016 C-1.13912487 83.84275523 -1.1361845 80.67140555 -1.1328125 77.5 C-1.13348549 75.30664052 -1.13445547 73.1132811 -1.13571167 70.91992188 C-1.13718888 66.31639905 -1.13503334 61.71289558 -1.13037109 57.109375 C-1.1246738 51.19395405 -1.12795268 45.27857846 -1.13394356 39.36315918 C-1.13754854 34.83202774 -1.13641087 30.30090715 -1.13381577 25.76977539 C-1.13314632 23.58797195 -1.13397552 21.40616754 -1.13629532 19.22436523 C-1.13882082 16.1808001 -1.1349827 13.13730954 -1.12939453 10.09375 C-1.13141876 9.18254395 -1.13344299 8.27133789 -1.13552856 7.33251953 C-1.11426229 1.11426229 -1.11426229 1.11426229 0 0 Z " fill="#0A0A0A" transform="translate(177,200)"/>
<path d="M0 0 C3.52231283 1.42247249 6.74010377 2.86125524 9 6 C9 7.32 9 8.64 9 10 C6.75 10.25 6.75 10.25 4 10 C3.360625 9.34 2.72125 8.68 2.0625 8 C0.10067921 5.68326073 0.10067921 5.68326073 -3.125 5.6875 C-5.93939173 5.82471926 -5.93939173 5.82471926 -8 7 C-7.67 8.65 -7.34 10.3 -7 12 C-6.26394531 12.18175781 -5.52789062 12.36351562 -4.76953125 12.55078125 C7.46889952 15.70334928 7.46889952 15.70334928 11 21 C11.53155206 24.98664043 11.13917086 26.74565325 9.1875 30.3125 C7 33 7 33 4 34 C-7.39643823 35.15115538 -7.39643823 35.15115538 -11.6875 31.8125 C-13.98404463 29.01940518 -14.79629204 27.56488931 -15 24 C-12.8125 23.6875 -12.8125 23.6875 -10 24 C-9.21625 24.825 -8.4325 25.65 -7.625 26.5 C-5.15179433 29.35564175 -5.15179433 29.35564175 -1.3125 29.4375 C2.07357392 29.33204711 2.07357392 29.33204711 4 27 C4.16687448 24.41645782 4.16687448 24.41645782 4 22 C2.95199219 21.67386719 1.90398437 21.34773438 0.82421875 21.01171875 C-0.55484175 20.57079465 -1.93373962 20.12936168 -3.3125 19.6875 C-4.00279297 19.47416016 -4.69308594 19.26082031 -5.40429688 19.04101562 C-12.12999337 16.86409937 -12.12999337 16.86409937 -14 14 C-14.67706156 10.93629644 -14.61148145 8.07408402 -14 5 C-9.63482049 0.4050742 -6.22659237 -0.41510616 0 0 Z " fill="#0B0B0B" transform="translate(457,232)"/>
<path d="M0 0 C1.98 0 3.96 0 6 0 C6.33 4.29 6.66 8.58 7 13 C8.08667969 11.59234375 8.08667969 11.59234375 9.1953125 10.15625 C10.17092255 8.93673743 11.14753818 7.71802885 12.125 6.5 C12.599375 5.87996094 13.07375 5.25992188 13.5625 4.62109375 C17.24637369 0.09092475 17.24637369 0.09092475 21.3671875 -0.40625 C22.23601562 -0.2721875 23.10484375 -0.138125 24 0 C22.3718356 3.75730247 19.98598083 6.616823 17.375 9.75 C16.14910156 11.22726563 16.14910156 11.22726563 14.8984375 12.734375 C14.27195312 13.48203125 13.64546875 14.2296875 13 15 C14.40541113 19.28535198 16.46772497 21.87623135 19.5625 25.125 C23.89564503 29.68693509 23.89564503 29.68693509 25 33 C21.80078125 33.33203125 21.80078125 33.33203125 18 33 C15.41796875 30.69921875 15.41796875 30.69921875 13.1875 27.6875 C12.43855469 26.70136719 11.68960937 25.71523438 10.91796875 24.69921875 C9.58264846 22.81997981 8.27877577 20.91816365 7 19 C6.67 23.62 6.34 28.24 6 33 C4.02 33 2.04 33 0 33 C0 22.11 0 11.22 0 0 Z " fill="#0F0F0F" transform="translate(359,233)"/>
<path d="M0 0 C3.52231283 1.42247249 6.74010377 2.86125524 9 6 C9 7.32 9 8.64 9 10 C6.75 10.25 6.75 10.25 4 10 C3.360625 9.34 2.72125 8.68 2.0625 8 C0.10067921 5.68326073 0.10067921 5.68326073 -3.125 5.6875 C-5.93939173 5.82471926 -5.93939173 5.82471926 -8 7 C-7.67 8.65 -7.34 10.3 -7 12 C-6.26394531 12.18175781 -5.52789062 12.36351562 -4.76953125 12.55078125 C7.46889952 15.70334928 7.46889952 15.70334928 11 21 C11.53155206 24.98664043 11.13917086 26.74565325 9.1875 30.3125 C7 33 7 33 4 34 C-7.39643823 35.15115538 -7.39643823 35.15115538 -11.6875 31.8125 C-13.98404463 29.01940518 -14.79629204 27.56488931 -15 24 C-12.8125 23.6875 -12.8125 23.6875 -10 24 C-9.21625 24.825 -8.4325 25.65 -7.625 26.5 C-5.15179433 29.35564175 -5.15179433 29.35564175 -1.3125 29.4375 C2.07357392 29.33204711 2.07357392 29.33204711 4 27 C4.16687448 24.41645782 4.16687448 24.41645782 4 22 C2.95199219 21.67386719 1.90398437 21.34773438 0.82421875 21.01171875 C-0.55484175 20.57079465 -1.93373962 20.12936168 -3.3125 19.6875 C-4.00279297 19.47416016 -4.69308594 19.26082031 -5.40429688 19.04101562 C-12.12999337 16.86409937 -12.12999337 16.86409937 -14 14 C-14.67706156 10.93629644 -14.61148145 8.07408402 -14 5 C-9.63482049 0.4050742 -6.22659237 -0.41510616 0 0 Z " fill="#0B0B0B" transform="translate(217,232)"/>
<path d="M0 0 C3.49406769 1.66762322 4.82670681 2.74006022 7 6 C7.265625 8.77734375 7.265625 8.77734375 7.25 11.9375 C7.25515625 12.97777344 7.2603125 14.01804688 7.265625 15.08984375 C7.00089935 17.99014685 6.61039525 19.60051107 5 22 C0.7906851 24.80620993 -3.05407836 24.81891489 -8 24 C-11.62535481 20.63991505 -12.94640525 18.08975982 -13.1875 13.1875 C-13.09811789 8.24466926 -12.26883882 5.30408434 -8.75 1.6875 C-5.44146305 -0.34273858 -3.8200098 -0.55708476 0 0 Z " fill="#EDF0F4" transform="translate(293,237)"/>
<path d="M0 0 C2.99584708 1.97453558 4.79784475 3.80918423 6.75 6.8125 C6.75 7.8025 6.75 8.7925 6.75 9.8125 C4.0625 10.125 4.0625 10.125 0.75 9.8125 C-0.91666667 8.14583333 -2.58333333 6.47916667 -4.25 4.8125 C-8.22137281 4.0678676 -9.69099683 4.43983122 -13.0625 6.6875 C-15.99531781 9.53652301 -16.41892318 11.08973597 -16.5 15.0625 C-16.463746 19.55799656 -15.55345853 23.50904147 -12.25 26.8125 C-10.77351124 26.91073996 -9.29224583 26.94223519 -7.8125 26.9375 C-7.00941406 26.94007813 -6.20632813 26.94265625 -5.37890625 26.9453125 C-3.19602069 26.94828326 -3.19602069 26.94828326 -1.25 25.8125 C-0.11649466 23.79580173 -0.11649466 23.79580173 0.75 21.8125 C2.73 21.8125 4.71 21.8125 6.75 21.8125 C5.97332873 25.85119062 5.27486881 28.27381885 2.375 31.25 C-2.8743192 33.51263758 -7.6177733 33.56964433 -13.25 32.8125 C-18.37265002 30.47585262 -20.11611017 27.91686146 -22.25 22.8125 C-23.01949114 16.71202972 -23.13890965 10.87477039 -20.6875 5.1875 C-14.42678004 -0.91268868 -8.59328182 -3.13985297 0 0 Z " fill="#0F0F10" transform="translate(340.25,233.1875)"/>
<path d="M0 0 C8.58 0 17.16 0 26 0 C26 1.65 26 3.3 26 5 C22.7 5 19.4 5 16 5 C16 14.24 16 23.48 16 33 C14.02 33 12.04 33 10 33 C10 23.76 10 14.52 10 5 C6.7 5 3.4 5 0 5 C0 3.35 0 1.7 0 0 Z " fill="#101011" transform="translate(238,233)"/>
</svg>
