<?xml version="1.0" standalone="no"?>
<!DOCTYPE svg PUBLIC "-//W3C//DTD SVG 20010904//EN"
 "http://www.w3.org/TR/2001/REC-SVG-20010904/DTD/svg10.dtd">
<svg version="1.0" xmlns="http://www.w3.org/2000/svg"
 width="429.000000pt" height="110.000000pt" viewBox="0 0 429.000000 110.000000"
 preserveAspectRatio="xMidYMid meet">

<g transform="translate(0.000000,110.000000) scale(0.100000,-0.100000)"
fill="#000000" stroke="none">
<path d="M510 1038 c-112 -11 -205 -56 -282 -135 l-37 -38 89 -150 c49 -83 90
-155 90 -162 0 -7 -21 -47 -47 -89 -54 -90 -38 -99 -151 88 -87 144 -90 145
-91 7 -1 -106 23 -191 77 -275 40 -62 118 -137 136 -131 6 2 63 93 128 203
105 178 116 201 104 219 -7 11 -46 75 -86 143 -83 139 -83 134 15 169 78 28
186 24 258 -10 61 -28 137 -82 137 -98 0 -5 -60 -9 -135 -9 -74 0 -135 -3
-135 -7 0 -3 16 -35 35 -70 l36 -63 206 0 206 0 -6 36 c-17 101 -114 238 -216
303 -91 59 -205 83 -331 69z"/>
<path d="M1267 1043 c-11 -10 -8 -981 2 -987 5 -4 16 -3 25 0 14 6 16 57 16
494 0 436 -2 489 -16 494 -19 7 -19 7 -27 -1z"/>
<path d="M1583 716 c-38 -17 -53 -43 -53 -90 0 -44 31 -70 101 -85 69 -15 89
-27 89 -56 0 -26 -33 -55 -63 -55 -29 0 -75 28 -82 50 -4 13 -15 20 -31 20
-60 0 1 -94 71 -110 47 -11 108 1 136 25 25 23 34 77 18 106 -18 34 -37 46
-94 60 -87 20 -114 48 -79 83 24 24 71 20 100 -10 17 -16 35 -24 50 -22 21 3
22 5 11 27 -29 57 -112 85 -174 57z"/>
<path d="M2347 716 c-72 -26 -100 -71 -100 -157 0 -107 56 -170 152 -171 58 0
102 22 135 65 30 41 30 163 0 203 -47 63 -117 86 -187 60z m102 -50 c56 -30
71 -140 26 -194 -86 -103 -220 23 -157 148 27 55 78 73 131 46z"/>
<path d="M2777 716 c-71 -26 -100 -71 -100 -157 0 -107 57 -171 152 -171 59 0
106 23 126 62 21 41 19 50 -12 50 -20 0 -33 -8 -44 -29 -29 -49 -105 -48 -143
3 -32 42 -29 137 5 171 14 14 42 28 62 32 32 5 40 2 66 -26 36 -39 86 -45 76
-8 -11 35 -45 66 -84 77 -46 13 -58 12 -104 -4z"/>
<path d="M3983 716 c-38 -17 -53 -43 -53 -90 0 -44 31 -70 101 -85 69 -15 89
-27 89 -56 0 -26 -33 -55 -63 -55 -29 0 -75 28 -82 50 -4 13 -15 20 -31 20
-60 0 1 -94 71 -110 47 -11 108 1 136 25 25 23 34 77 18 106 -18 34 -37 46
-94 60 -87 20 -114 48 -79 83 24 24 71 20 100 -10 17 -16 35 -24 50 -22 21 3
22 5 11 27 -29 57 -112 85 -174 57z"/>
<path d="M1880 695 c0 -23 3 -25 50 -25 l50 0 0 -140 0 -140 30 0 30 0 0 140
0 140 50 0 c47 0 50 2 50 25 l0 25 -130 0 -130 0 0 -25z"/>
<path d="M3090 555 l0 -165 30 0 29 0 3 75 3 75 60 -75 c52 -65 64 -75 93 -75
17 0 32 2 32 4 0 2 -29 39 -65 82 -36 43 -65 82 -65 86 0 4 30 41 66 83 l65
75 -35 0 c-31 0 -41 -8 -93 -71 l-58 -70 -3 70 -3 71 -29 0 -30 0 0 -165z"/>
<path d="M3450 555 l0 -165 30 0 29 0 3 138 3 137 39 -137 c39 -134 41 -138
67 -138 26 0 29 5 53 83 13 45 33 109 43 142 l18 60 3 -142 3 -143 24 0 25 0
0 166 0 165 -47 -3 -48 -3 -34 -123 c-19 -67 -38 -119 -41 -115 -4 5 -22 61
-40 126 l-33 117 -48 0 -49 0 0 -165z"/>
<path d="M625 425 c-59 -91 -66 -85 96 -85 l144 -1 -47 -43 c-73 -67 -127 -89
-235 -94 l-93 -4 -34 -57 -35 -56 37 -12 c20 -6 71 -12 112 -12 139 -1 257 47
356 145 67 66 122 164 131 233 l6 41 -202 0 -201 0 -35 -55z"/>
</g>
</svg>
